<mxfile host="app.diagrams.net" agent="Mozilla/5.0 (Windows NT 10.0; Win64; x64; rv:128.0) Gecko/20100101 Firefox/128.0" version="25.0.3">
  <diagram name="Page-1" id="cIaOLWD1ge9-0gMzvOQr">
    <mxGraphModel dx="-153" dy="4493" grid="1" gridSize="10" guides="1" tooltips="1" connect="1" arrows="1" fold="1" page="1" pageScale="1" pageWidth="850" pageHeight="1100" math="0" shadow="0">
      <root>
        <mxCell id="0" />
        <mxCell id="1" parent="0" />
        <mxCell id="mL31DMJb-2jbyRaG980a-88" value="" style="edgeStyle=orthogonalEdgeStyle;rounded=0;orthogonalLoop=1;jettySize=auto;html=1;" edge="1" parent="1" source="mL31DMJb-2jbyRaG980a-2" target="mL31DMJb-2jbyRaG980a-86">
          <mxGeometry relative="1" as="geometry" />
        </mxCell>
        <mxCell id="mL31DMJb-2jbyRaG980a-89" value="" style="edgeStyle=orthogonalEdgeStyle;rounded=0;orthogonalLoop=1;jettySize=auto;html=1;" edge="1" parent="1" source="mL31DMJb-2jbyRaG980a-2" target="mL31DMJb-2jbyRaG980a-85">
          <mxGeometry relative="1" as="geometry" />
        </mxCell>
        <mxCell id="mL31DMJb-2jbyRaG980a-90" value="" style="edgeStyle=orthogonalEdgeStyle;rounded=0;orthogonalLoop=1;jettySize=auto;html=1;" edge="1" parent="1" source="mL31DMJb-2jbyRaG980a-2" target="mL31DMJb-2jbyRaG980a-87">
          <mxGeometry relative="1" as="geometry" />
        </mxCell>
        <mxCell id="mL31DMJb-2jbyRaG980a-2" value="Department" style="rounded=1;whiteSpace=wrap;html=1;" vertex="1" parent="1">
          <mxGeometry x="1280" y="-2990" width="120" height="60" as="geometry" />
        </mxCell>
        <mxCell id="mL31DMJb-2jbyRaG980a-94" value="" style="edgeStyle=orthogonalEdgeStyle;rounded=0;orthogonalLoop=1;jettySize=auto;html=1;" edge="1" parent="1" source="mL31DMJb-2jbyRaG980a-3" target="mL31DMJb-2jbyRaG980a-92">
          <mxGeometry relative="1" as="geometry" />
        </mxCell>
        <mxCell id="mL31DMJb-2jbyRaG980a-95" value="" style="edgeStyle=orthogonalEdgeStyle;rounded=0;orthogonalLoop=1;jettySize=auto;html=1;" edge="1" parent="1" source="mL31DMJb-2jbyRaG980a-3" target="mL31DMJb-2jbyRaG980a-91">
          <mxGeometry relative="1" as="geometry" />
        </mxCell>
        <mxCell id="mL31DMJb-2jbyRaG980a-3" value="Faculty" style="rounded=1;whiteSpace=wrap;html=1;" vertex="1" parent="1">
          <mxGeometry x="1250" y="170" width="120" height="60" as="geometry" />
        </mxCell>
        <mxCell id="mL31DMJb-2jbyRaG980a-55" value="" style="edgeStyle=orthogonalEdgeStyle;rounded=0;orthogonalLoop=1;jettySize=auto;html=1;" edge="1" parent="1" source="mL31DMJb-2jbyRaG980a-5" target="mL31DMJb-2jbyRaG980a-54">
          <mxGeometry relative="1" as="geometry" />
        </mxCell>
        <mxCell id="mL31DMJb-2jbyRaG980a-56" value="" style="edgeStyle=orthogonalEdgeStyle;rounded=0;orthogonalLoop=1;jettySize=auto;html=1;" edge="1" parent="1" source="mL31DMJb-2jbyRaG980a-5" target="mL31DMJb-2jbyRaG980a-50">
          <mxGeometry relative="1" as="geometry" />
        </mxCell>
        <mxCell id="mL31DMJb-2jbyRaG980a-57" value="" style="edgeStyle=orthogonalEdgeStyle;rounded=0;orthogonalLoop=1;jettySize=auto;html=1;" edge="1" parent="1" source="mL31DMJb-2jbyRaG980a-5" target="mL31DMJb-2jbyRaG980a-53">
          <mxGeometry relative="1" as="geometry" />
        </mxCell>
        <mxCell id="mL31DMJb-2jbyRaG980a-59" value="" style="edgeStyle=orthogonalEdgeStyle;rounded=0;orthogonalLoop=1;jettySize=auto;html=1;" edge="1" parent="1" source="mL31DMJb-2jbyRaG980a-5" target="mL31DMJb-2jbyRaG980a-51">
          <mxGeometry relative="1" as="geometry" />
        </mxCell>
        <mxCell id="mL31DMJb-2jbyRaG980a-5" value="Course" style="rounded=1;whiteSpace=wrap;html=1;" vertex="1" parent="1">
          <mxGeometry x="1270" y="-1940" width="120" height="60" as="geometry" />
        </mxCell>
        <mxCell id="mL31DMJb-2jbyRaG980a-80" value="" style="edgeStyle=orthogonalEdgeStyle;rounded=0;orthogonalLoop=1;jettySize=auto;html=1;" edge="1" parent="1" source="mL31DMJb-2jbyRaG980a-6" target="mL31DMJb-2jbyRaG980a-76">
          <mxGeometry relative="1" as="geometry" />
        </mxCell>
        <mxCell id="mL31DMJb-2jbyRaG980a-81" value="" style="edgeStyle=orthogonalEdgeStyle;rounded=0;orthogonalLoop=1;jettySize=auto;html=1;" edge="1" parent="1" source="mL31DMJb-2jbyRaG980a-6" target="mL31DMJb-2jbyRaG980a-77">
          <mxGeometry relative="1" as="geometry" />
        </mxCell>
        <mxCell id="mL31DMJb-2jbyRaG980a-82" value="" style="edgeStyle=orthogonalEdgeStyle;rounded=0;orthogonalLoop=1;jettySize=auto;html=1;" edge="1" parent="1" source="mL31DMJb-2jbyRaG980a-6" target="mL31DMJb-2jbyRaG980a-73">
          <mxGeometry relative="1" as="geometry" />
        </mxCell>
        <mxCell id="mL31DMJb-2jbyRaG980a-83" value="" style="edgeStyle=orthogonalEdgeStyle;rounded=0;orthogonalLoop=1;jettySize=auto;html=1;" edge="1" parent="1" source="mL31DMJb-2jbyRaG980a-6" target="mL31DMJb-2jbyRaG980a-74">
          <mxGeometry relative="1" as="geometry" />
        </mxCell>
        <mxCell id="mL31DMJb-2jbyRaG980a-84" style="edgeStyle=orthogonalEdgeStyle;rounded=0;orthogonalLoop=1;jettySize=auto;html=1;exitX=0;exitY=0;exitDx=0;exitDy=0;entryX=1;entryY=1;entryDx=0;entryDy=0;" edge="1" parent="1" source="mL31DMJb-2jbyRaG980a-6" target="mL31DMJb-2jbyRaG980a-72">
          <mxGeometry relative="1" as="geometry" />
        </mxCell>
        <mxCell id="mL31DMJb-2jbyRaG980a-6" value="Employee" style="rounded=1;whiteSpace=wrap;html=1;" vertex="1" parent="1">
          <mxGeometry x="1280" y="-810" width="120" height="60" as="geometry" />
        </mxCell>
        <mxCell id="mL31DMJb-2jbyRaG980a-22" value="" style="edgeStyle=orthogonalEdgeStyle;rounded=0;orthogonalLoop=1;jettySize=auto;html=1;" edge="1" parent="1" source="mL31DMJb-2jbyRaG980a-7" target="mL31DMJb-2jbyRaG980a-17">
          <mxGeometry relative="1" as="geometry" />
        </mxCell>
        <mxCell id="mL31DMJb-2jbyRaG980a-23" value="" style="edgeStyle=orthogonalEdgeStyle;rounded=0;orthogonalLoop=1;jettySize=auto;html=1;" edge="1" parent="1" source="mL31DMJb-2jbyRaG980a-7" target="mL31DMJb-2jbyRaG980a-14">
          <mxGeometry relative="1" as="geometry" />
        </mxCell>
        <mxCell id="mL31DMJb-2jbyRaG980a-24" value="" style="edgeStyle=orthogonalEdgeStyle;rounded=0;orthogonalLoop=1;jettySize=auto;html=1;" edge="1" parent="1" source="mL31DMJb-2jbyRaG980a-7" target="mL31DMJb-2jbyRaG980a-16">
          <mxGeometry relative="1" as="geometry" />
        </mxCell>
        <mxCell id="mL31DMJb-2jbyRaG980a-25" value="" style="edgeStyle=orthogonalEdgeStyle;rounded=0;orthogonalLoop=1;jettySize=auto;html=1;" edge="1" parent="1" source="mL31DMJb-2jbyRaG980a-7" target="mL31DMJb-2jbyRaG980a-15">
          <mxGeometry relative="1" as="geometry" />
        </mxCell>
        <mxCell id="mL31DMJb-2jbyRaG980a-7" value="&lt;font&gt;User&lt;/font&gt;" style="rounded=1;whiteSpace=wrap;html=1;" vertex="1" parent="1">
          <mxGeometry x="1275" y="-2520" width="120" height="60" as="geometry" />
        </mxCell>
        <mxCell id="mL31DMJb-2jbyRaG980a-67" style="edgeStyle=orthogonalEdgeStyle;rounded=0;orthogonalLoop=1;jettySize=auto;html=1;exitX=0;exitY=0;exitDx=0;exitDy=0;" edge="1" parent="1" source="mL31DMJb-2jbyRaG980a-8">
          <mxGeometry relative="1" as="geometry">
            <mxPoint x="1250" y="-1500" as="targetPoint" />
          </mxGeometry>
        </mxCell>
        <mxCell id="mL31DMJb-2jbyRaG980a-69" style="edgeStyle=orthogonalEdgeStyle;rounded=0;orthogonalLoop=1;jettySize=auto;html=1;exitX=0.5;exitY=1;exitDx=0;exitDy=0;" edge="1" parent="1" source="mL31DMJb-2jbyRaG980a-8">
          <mxGeometry relative="1" as="geometry">
            <mxPoint x="1270" y="-1290" as="targetPoint" />
          </mxGeometry>
        </mxCell>
        <mxCell id="mL31DMJb-2jbyRaG980a-70" value="" style="edgeStyle=orthogonalEdgeStyle;rounded=0;orthogonalLoop=1;jettySize=auto;html=1;" edge="1" parent="1" source="mL31DMJb-2jbyRaG980a-8" target="mL31DMJb-2jbyRaG980a-60">
          <mxGeometry relative="1" as="geometry" />
        </mxCell>
        <mxCell id="mL31DMJb-2jbyRaG980a-71" style="edgeStyle=orthogonalEdgeStyle;rounded=0;orthogonalLoop=1;jettySize=auto;html=1;exitX=0.75;exitY=1;exitDx=0;exitDy=0;" edge="1" parent="1" source="mL31DMJb-2jbyRaG980a-8" target="mL31DMJb-2jbyRaG980a-61">
          <mxGeometry relative="1" as="geometry" />
        </mxCell>
        <mxCell id="mL31DMJb-2jbyRaG980a-8" value="Lecturer" style="rounded=1;whiteSpace=wrap;html=1;" vertex="1" parent="1">
          <mxGeometry x="1280" y="-1440" width="120" height="60" as="geometry" />
        </mxCell>
        <mxCell id="mL31DMJb-2jbyRaG980a-99" value="" style="edgeStyle=orthogonalEdgeStyle;rounded=0;orthogonalLoop=1;jettySize=auto;html=1;" edge="1" parent="1" source="mL31DMJb-2jbyRaG980a-9" target="mL31DMJb-2jbyRaG980a-98">
          <mxGeometry relative="1" as="geometry" />
        </mxCell>
        <mxCell id="mL31DMJb-2jbyRaG980a-100" value="" style="edgeStyle=orthogonalEdgeStyle;rounded=0;orthogonalLoop=1;jettySize=auto;html=1;" edge="1" parent="1" source="mL31DMJb-2jbyRaG980a-9" target="mL31DMJb-2jbyRaG980a-96">
          <mxGeometry relative="1" as="geometry" />
        </mxCell>
        <mxCell id="mL31DMJb-2jbyRaG980a-101" value="" style="edgeStyle=orthogonalEdgeStyle;rounded=0;orthogonalLoop=1;jettySize=auto;html=1;" edge="1" parent="1" source="mL31DMJb-2jbyRaG980a-9" target="mL31DMJb-2jbyRaG980a-97">
          <mxGeometry relative="1" as="geometry" />
        </mxCell>
        <mxCell id="mL31DMJb-2jbyRaG980a-9" value="Role" style="rounded=1;whiteSpace=wrap;html=1;" vertex="1" parent="1">
          <mxGeometry x="1290" y="550" width="120" height="60" as="geometry" />
        </mxCell>
        <mxCell id="mL31DMJb-2jbyRaG980a-105" value="" style="edgeStyle=orthogonalEdgeStyle;rounded=0;orthogonalLoop=1;jettySize=auto;html=1;" edge="1" parent="1" source="mL31DMJb-2jbyRaG980a-10" target="mL31DMJb-2jbyRaG980a-103">
          <mxGeometry relative="1" as="geometry" />
        </mxCell>
        <mxCell id="mL31DMJb-2jbyRaG980a-106" value="" style="edgeStyle=orthogonalEdgeStyle;rounded=0;orthogonalLoop=1;jettySize=auto;html=1;" edge="1" parent="1" source="mL31DMJb-2jbyRaG980a-10" target="mL31DMJb-2jbyRaG980a-102">
          <mxGeometry relative="1" as="geometry" />
        </mxCell>
        <mxCell id="mL31DMJb-2jbyRaG980a-107" value="" style="edgeStyle=orthogonalEdgeStyle;rounded=0;orthogonalLoop=1;jettySize=auto;html=1;" edge="1" parent="1" source="mL31DMJb-2jbyRaG980a-10" target="mL31DMJb-2jbyRaG980a-104">
          <mxGeometry relative="1" as="geometry" />
        </mxCell>
        <mxCell id="mL31DMJb-2jbyRaG980a-10" value="Permissions" style="rounded=1;whiteSpace=wrap;html=1;" vertex="1" parent="1">
          <mxGeometry x="1295" y="840" width="120" height="60" as="geometry" />
        </mxCell>
        <mxCell id="mL31DMJb-2jbyRaG980a-36" value="" style="edgeStyle=orthogonalEdgeStyle;rounded=0;orthogonalLoop=1;jettySize=auto;html=1;" edge="1" parent="1" source="mL31DMJb-2jbyRaG980a-13" target="mL31DMJb-2jbyRaG980a-32">
          <mxGeometry relative="1" as="geometry" />
        </mxCell>
        <mxCell id="mL31DMJb-2jbyRaG980a-37" value="" style="edgeStyle=orthogonalEdgeStyle;rounded=0;orthogonalLoop=1;jettySize=auto;html=1;" edge="1" parent="1" source="mL31DMJb-2jbyRaG980a-13" target="mL31DMJb-2jbyRaG980a-27">
          <mxGeometry relative="1" as="geometry" />
        </mxCell>
        <mxCell id="mL31DMJb-2jbyRaG980a-40" value="" style="edgeStyle=orthogonalEdgeStyle;rounded=0;orthogonalLoop=1;jettySize=auto;html=1;" edge="1" parent="1" source="mL31DMJb-2jbyRaG980a-13" target="mL31DMJb-2jbyRaG980a-30">
          <mxGeometry relative="1" as="geometry" />
        </mxCell>
        <mxCell id="mL31DMJb-2jbyRaG980a-41" style="edgeStyle=orthogonalEdgeStyle;rounded=0;orthogonalLoop=1;jettySize=auto;html=1;exitX=1;exitY=0;exitDx=0;exitDy=0;entryX=0;entryY=1;entryDx=0;entryDy=0;" edge="1" parent="1" source="mL31DMJb-2jbyRaG980a-13" target="mL31DMJb-2jbyRaG980a-31">
          <mxGeometry relative="1" as="geometry" />
        </mxCell>
        <mxCell id="mL31DMJb-2jbyRaG980a-42" style="edgeStyle=orthogonalEdgeStyle;rounded=0;orthogonalLoop=1;jettySize=auto;html=1;exitX=0;exitY=0.5;exitDx=0;exitDy=0;" edge="1" parent="1" source="mL31DMJb-2jbyRaG980a-13" target="mL31DMJb-2jbyRaG980a-26">
          <mxGeometry relative="1" as="geometry" />
        </mxCell>
        <mxCell id="mL31DMJb-2jbyRaG980a-45" style="edgeStyle=orthogonalEdgeStyle;rounded=0;orthogonalLoop=1;jettySize=auto;html=1;exitX=0.25;exitY=0;exitDx=0;exitDy=0;" edge="1" parent="1" source="mL31DMJb-2jbyRaG980a-13" target="mL31DMJb-2jbyRaG980a-35">
          <mxGeometry relative="1" as="geometry" />
        </mxCell>
        <mxCell id="mL31DMJb-2jbyRaG980a-46" style="edgeStyle=orthogonalEdgeStyle;rounded=0;orthogonalLoop=1;jettySize=auto;html=1;exitX=0;exitY=0;exitDx=0;exitDy=0;entryX=1;entryY=1;entryDx=0;entryDy=0;" edge="1" parent="1" source="mL31DMJb-2jbyRaG980a-13" target="mL31DMJb-2jbyRaG980a-33">
          <mxGeometry relative="1" as="geometry" />
        </mxCell>
        <mxCell id="mL31DMJb-2jbyRaG980a-47" style="edgeStyle=orthogonalEdgeStyle;rounded=0;orthogonalLoop=1;jettySize=auto;html=1;exitX=0;exitY=0.75;exitDx=0;exitDy=0;" edge="1" parent="1" source="mL31DMJb-2jbyRaG980a-13" target="mL31DMJb-2jbyRaG980a-28">
          <mxGeometry relative="1" as="geometry">
            <Array as="points">
              <mxPoint x="1200" y="-172" />
            </Array>
          </mxGeometry>
        </mxCell>
        <mxCell id="mL31DMJb-2jbyRaG980a-49" style="edgeStyle=orthogonalEdgeStyle;rounded=0;orthogonalLoop=1;jettySize=auto;html=1;exitX=0.75;exitY=1;exitDx=0;exitDy=0;" edge="1" parent="1" source="mL31DMJb-2jbyRaG980a-13" target="mL31DMJb-2jbyRaG980a-34">
          <mxGeometry relative="1" as="geometry" />
        </mxCell>
        <mxCell id="mL31DMJb-2jbyRaG980a-13" value="Student" style="rounded=1;whiteSpace=wrap;html=1;" vertex="1" parent="1">
          <mxGeometry x="1300" y="-210" width="110" height="50" as="geometry" />
        </mxCell>
        <mxCell id="mL31DMJb-2jbyRaG980a-14" value="ID" style="ellipse;whiteSpace=wrap;html=1;" vertex="1" parent="1">
          <mxGeometry x="1275" y="-2680" width="120" height="80" as="geometry" />
        </mxCell>
        <mxCell id="mL31DMJb-2jbyRaG980a-15" value="Password" style="ellipse;whiteSpace=wrap;html=1;" vertex="1" parent="1">
          <mxGeometry x="1275" y="-2400" width="120" height="80" as="geometry" />
        </mxCell>
        <mxCell id="mL31DMJb-2jbyRaG980a-16" value="Email" style="ellipse;whiteSpace=wrap;html=1;" vertex="1" parent="1">
          <mxGeometry x="1075" y="-2530" width="120" height="80" as="geometry" />
        </mxCell>
        <mxCell id="mL31DMJb-2jbyRaG980a-17" value="Name" style="ellipse;whiteSpace=wrap;html=1;" vertex="1" parent="1">
          <mxGeometry x="1515" y="-2530" width="120" height="80" as="geometry" />
        </mxCell>
        <mxCell id="mL31DMJb-2jbyRaG980a-19" value="" style="endArrow=none;html=1;rounded=0;" edge="1" parent="1">
          <mxGeometry width="50" height="50" relative="1" as="geometry">
            <mxPoint x="1285" y="-2620" as="sourcePoint" />
            <mxPoint x="1375" y="-2620" as="targetPoint" />
            <Array as="points">
              <mxPoint x="1335" y="-2620" />
            </Array>
          </mxGeometry>
        </mxCell>
        <mxCell id="mL31DMJb-2jbyRaG980a-26" value="CGPA" style="ellipse;whiteSpace=wrap;html=1;" vertex="1" parent="1">
          <mxGeometry x="1050" y="-240" width="120" height="80" as="geometry" />
        </mxCell>
        <mxCell id="mL31DMJb-2jbyRaG980a-27" value="Level" style="ellipse;whiteSpace=wrap;html=1;" vertex="1" parent="1">
          <mxGeometry x="1510" y="-250" width="120" height="80" as="geometry" />
        </mxCell>
        <mxCell id="mL31DMJb-2jbyRaG980a-28" value="minor_dept" style="ellipse;whiteSpace=wrap;html=1;" vertex="1" parent="1">
          <mxGeometry x="1100" y="-70" width="120" height="80" as="geometry" />
        </mxCell>
        <mxCell id="mL31DMJb-2jbyRaG980a-30" value="Email" style="ellipse;whiteSpace=wrap;html=1;" vertex="1" parent="1">
          <mxGeometry x="1320" y="-390" width="120" height="80" as="geometry" />
        </mxCell>
        <mxCell id="mL31DMJb-2jbyRaG980a-31" value="Date of birth" style="ellipse;whiteSpace=wrap;html=1;" vertex="1" parent="1">
          <mxGeometry x="1500" y="-400" width="120" height="80" as="geometry" />
        </mxCell>
        <mxCell id="mL31DMJb-2jbyRaG980a-32" value="Major_dept" style="ellipse;whiteSpace=wrap;html=1;" vertex="1" parent="1">
          <mxGeometry x="1290" y="-70" width="120" height="80" as="geometry" />
        </mxCell>
        <mxCell id="mL31DMJb-2jbyRaG980a-33" value="Id" style="ellipse;whiteSpace=wrap;html=1;" vertex="1" parent="1">
          <mxGeometry x="1060" y="-330" width="120" height="80" as="geometry" />
        </mxCell>
        <mxCell id="mL31DMJb-2jbyRaG980a-34" value="Role" style="ellipse;whiteSpace=wrap;html=1;" vertex="1" parent="1">
          <mxGeometry x="1470" y="-120" width="120" height="80" as="geometry" />
        </mxCell>
        <mxCell id="mL31DMJb-2jbyRaG980a-35" value="name" style="ellipse;whiteSpace=wrap;html=1;" vertex="1" parent="1">
          <mxGeometry x="1170" y="-400" width="100" height="50" as="geometry" />
        </mxCell>
        <mxCell id="mL31DMJb-2jbyRaG980a-50" value="id" style="ellipse;whiteSpace=wrap;html=1;" vertex="1" parent="1">
          <mxGeometry x="1200" y="-2110" width="120" height="80" as="geometry" />
        </mxCell>
        <mxCell id="mL31DMJb-2jbyRaG980a-51" value="level" style="ellipse;whiteSpace=wrap;html=1;" vertex="1" parent="1">
          <mxGeometry x="1270" y="-1790" width="120" height="80" as="geometry" />
        </mxCell>
        <mxCell id="mL31DMJb-2jbyRaG980a-52" value="name" style="ellipse;whiteSpace=wrap;html=1;" vertex="1" parent="1">
          <mxGeometry x="1420" y="-2100" width="120" height="80" as="geometry" />
        </mxCell>
        <mxCell id="mL31DMJb-2jbyRaG980a-53" value="credits" style="ellipse;whiteSpace=wrap;html=1;" vertex="1" parent="1">
          <mxGeometry x="1490" y="-1930" width="120" height="80" as="geometry" />
        </mxCell>
        <mxCell id="mL31DMJb-2jbyRaG980a-54" value="department_id" style="ellipse;whiteSpace=wrap;html=1;" vertex="1" parent="1">
          <mxGeometry x="1060" y="-1950" width="120" height="80" as="geometry" />
        </mxCell>
        <mxCell id="mL31DMJb-2jbyRaG980a-58" style="edgeStyle=orthogonalEdgeStyle;rounded=0;orthogonalLoop=1;jettySize=auto;html=1;exitX=1;exitY=0;exitDx=0;exitDy=0;entryX=0.372;entryY=0.983;entryDx=0;entryDy=0;entryPerimeter=0;" edge="1" parent="1" source="mL31DMJb-2jbyRaG980a-5" target="mL31DMJb-2jbyRaG980a-52">
          <mxGeometry relative="1" as="geometry" />
        </mxCell>
        <mxCell id="mL31DMJb-2jbyRaG980a-60" value="role_id" style="ellipse;whiteSpace=wrap;html=1;" vertex="1" parent="1">
          <mxGeometry x="1480" y="-1430" width="120" height="80" as="geometry" />
        </mxCell>
        <mxCell id="mL31DMJb-2jbyRaG980a-61" value="department_id" style="ellipse;whiteSpace=wrap;html=1;" vertex="1" parent="1">
          <mxGeometry x="1400" y="-1280" width="120" height="80" as="geometry" />
        </mxCell>
        <mxCell id="mL31DMJb-2jbyRaG980a-62" value="specialization" style="ellipse;whiteSpace=wrap;html=1;" vertex="1" parent="1">
          <mxGeometry x="1180" y="-1280" width="120" height="80" as="geometry" />
        </mxCell>
        <mxCell id="mL31DMJb-2jbyRaG980a-63" value="email" style="ellipse;whiteSpace=wrap;html=1;" vertex="1" parent="1">
          <mxGeometry x="1110" y="-1420" width="120" height="80" as="geometry" />
        </mxCell>
        <mxCell id="mL31DMJb-2jbyRaG980a-64" value="id" style="ellipse;whiteSpace=wrap;html=1;" vertex="1" parent="1">
          <mxGeometry x="1390" y="-1600" width="120" height="80" as="geometry" />
        </mxCell>
        <mxCell id="mL31DMJb-2jbyRaG980a-65" value="name" style="ellipse;whiteSpace=wrap;html=1;" vertex="1" parent="1">
          <mxGeometry x="1180" y="-1590" width="120" height="80" as="geometry" />
        </mxCell>
        <mxCell id="mL31DMJb-2jbyRaG980a-66" style="edgeStyle=orthogonalEdgeStyle;rounded=0;orthogonalLoop=1;jettySize=auto;html=1;exitX=0.5;exitY=0;exitDx=0;exitDy=0;entryX=0.579;entryY=0.984;entryDx=0;entryDy=0;entryPerimeter=0;" edge="1" parent="1" source="mL31DMJb-2jbyRaG980a-8" target="mL31DMJb-2jbyRaG980a-64">
          <mxGeometry relative="1" as="geometry" />
        </mxCell>
        <mxCell id="mL31DMJb-2jbyRaG980a-68" style="edgeStyle=orthogonalEdgeStyle;rounded=0;orthogonalLoop=1;jettySize=auto;html=1;exitX=0;exitY=0.5;exitDx=0;exitDy=0;entryX=0.985;entryY=0.406;entryDx=0;entryDy=0;entryPerimeter=0;" edge="1" parent="1" source="mL31DMJb-2jbyRaG980a-8" target="mL31DMJb-2jbyRaG980a-63">
          <mxGeometry relative="1" as="geometry" />
        </mxCell>
        <mxCell id="mL31DMJb-2jbyRaG980a-72" value="name" style="ellipse;whiteSpace=wrap;html=1;" vertex="1" parent="1">
          <mxGeometry x="1090" y="-1020" width="120" height="80" as="geometry" />
        </mxCell>
        <mxCell id="mL31DMJb-2jbyRaG980a-73" value="position" style="ellipse;whiteSpace=wrap;html=1;" vertex="1" parent="1">
          <mxGeometry x="1490" y="-860" width="120" height="80" as="geometry" />
        </mxCell>
        <mxCell id="mL31DMJb-2jbyRaG980a-74" value="department_id" style="ellipse;whiteSpace=wrap;html=1;" vertex="1" parent="1">
          <mxGeometry x="1360" y="-660" width="120" height="80" as="geometry" />
        </mxCell>
        <mxCell id="mL31DMJb-2jbyRaG980a-75" value="role_id" style="ellipse;whiteSpace=wrap;html=1;" vertex="1" parent="1">
          <mxGeometry x="1110" y="-700" width="120" height="80" as="geometry" />
        </mxCell>
        <mxCell id="mL31DMJb-2jbyRaG980a-76" value="id" style="ellipse;whiteSpace=wrap;html=1;" vertex="1" parent="1">
          <mxGeometry x="1060" y="-840" width="120" height="80" as="geometry" />
        </mxCell>
        <mxCell id="mL31DMJb-2jbyRaG980a-77" value="Email" style="ellipse;whiteSpace=wrap;html=1;" vertex="1" parent="1">
          <mxGeometry x="1280" y="-970" width="120" height="80" as="geometry" />
        </mxCell>
        <mxCell id="mL31DMJb-2jbyRaG980a-85" value="id" style="ellipse;whiteSpace=wrap;html=1;" vertex="1" parent="1">
          <mxGeometry x="1280" y="-3140" width="120" height="80" as="geometry" />
        </mxCell>
        <mxCell id="mL31DMJb-2jbyRaG980a-86" value="name" style="ellipse;whiteSpace=wrap;html=1;" vertex="1" parent="1">
          <mxGeometry x="1120" y="-3000" width="120" height="80" as="geometry" />
        </mxCell>
        <mxCell id="mL31DMJb-2jbyRaG980a-87" value="faculty_id" style="ellipse;whiteSpace=wrap;html=1;" vertex="1" parent="1">
          <mxGeometry x="1440" y="-3000" width="120" height="80" as="geometry" />
        </mxCell>
        <mxCell id="mL31DMJb-2jbyRaG980a-91" value="Name" style="ellipse;whiteSpace=wrap;html=1;" vertex="1" parent="1">
          <mxGeometry x="1480" y="160" width="120" height="80" as="geometry" />
        </mxCell>
        <mxCell id="mL31DMJb-2jbyRaG980a-92" value="id" style="ellipse;whiteSpace=wrap;html=1;" vertex="1" parent="1">
          <mxGeometry x="1080" y="150" width="120" height="80" as="geometry" />
        </mxCell>
        <mxCell id="mL31DMJb-2jbyRaG980a-96" value="id" style="ellipse;whiteSpace=wrap;html=1;" vertex="1" parent="1">
          <mxGeometry x="1290" y="420" width="120" height="80" as="geometry" />
        </mxCell>
        <mxCell id="mL31DMJb-2jbyRaG980a-97" value="name" style="ellipse;whiteSpace=wrap;html=1;" vertex="1" parent="1">
          <mxGeometry x="1480" y="540" width="120" height="80" as="geometry" />
        </mxCell>
        <mxCell id="mL31DMJb-2jbyRaG980a-98" value="description" style="ellipse;whiteSpace=wrap;html=1;" vertex="1" parent="1">
          <mxGeometry x="1100" y="540" width="120" height="80" as="geometry" />
        </mxCell>
        <mxCell id="mL31DMJb-2jbyRaG980a-102" value="id" style="ellipse;whiteSpace=wrap;html=1;" vertex="1" parent="1">
          <mxGeometry x="1510" y="830" width="120" height="80" as="geometry" />
        </mxCell>
        <mxCell id="mL31DMJb-2jbyRaG980a-103" value="description" style="ellipse;whiteSpace=wrap;html=1;" vertex="1" parent="1">
          <mxGeometry x="1295" y="990" width="120" height="80" as="geometry" />
        </mxCell>
        <mxCell id="mL31DMJb-2jbyRaG980a-104" value="Permission_name" style="ellipse;whiteSpace=wrap;html=1;" vertex="1" parent="1">
          <mxGeometry x="1080" y="830" width="120" height="80" as="geometry" />
        </mxCell>
      </root>
    </mxGraphModel>
  </diagram>
</mxfile>
